PathFileType	4	(X/Y/Z)	C:\Users\chris\Desktop\Pose2Sim_Project\videos\pitch1_Sports2D\pitch1_Sports2D_px_person00.trc
DataRate	CameraRate	NumFrames	NumMarkers	Units	OrigDataRate	OrigDataStartFrame	OrigNumFrames
30.0	30.0	7	22	m	30.0	68	110
Frame#	Time	Hip			RHip			RKnee			RAnkle			RBigToe			RSmallToe			RHeel			LHip			LKnee			LAnkle			LBigToe			LSmallToe			LHeel			Neck			Head			Nose			RShoulder			RElbow			RWrist			LShoulder			LElbow			LWrist		
		X1	Y1	Z1	X2	Y2	Z2	X3	Y3	Z3	X4	Y4	Z4	X5	Y5	Z5	X6	Y6	Z6	X7	Y7	Z7	X8	Y8	Z8	X9	Y9	Z9	X10	Y10	Z10	X11	Y11	Z11	X12	Y12	Z12	X13	Y13	Z13	X14	Y14	Z14	X15	Y15	Z15	X16	Y16	Z16	X17	Y17	Z17	X18	Y18	Z18	X19	Y19	Z19	X20	Y20	Z20	X21	Y21	Z21	X22	Y22	Z22
68	2.2666666666666666	480.1815083522573	382.0778957302059	0.0	447.62085465596215	389.98893465715685	0.0	406.57240179112625	532.2842895101487	0.0	384.3770068132741	634.1225256932868	0.0	375.01473887087906	684.7264094393156	0.0	356.7284125384637	677.038123150988	0.0	387.7284722808317	648.0767255685167	0.0	515.8279230337204	383.6732826712161	0.0	474.46308875486005	526.6198338557479	0.0	441.42275093934853	669.8266233775555	0.0	397.02113881527833	703.4363052228654	0.0	422.7624668922126	708.0067729088	0.0	444.5239777780582	690.8797088108716	0.0	431.39483140562027	201.48072182988048	0.0	422.8950369114601	102.23410245632463	0.0	460.7088672780278	155.20315848038388	0.0	372.20988759735224	246.1391899441843	0.0	367.34524075892494	328.7966915077783	0.0	380.6957813248121	384.92125201843953	0.0	499.775050571623	210.4412930722358	0.0	578.3868916188925	262.7241867664657	0.0	552.0509555322359	320.86035672159045	0.0
69	2.3	487.05937892807157	387.68640638831994	0.0	454.987479913288	395.4503911684203	0.0	409.0755321424443	536.9280670796143	0.0	384.9805764648955	633.6913788540509	0.0	377.84321166438343	685.9891325952694	0.0	356.4251667012103	675.9884609525673	0.0	388.9851184444706	644.7347910025555	0.0	522.6975094931308	388.87502898103753	0.0	504.3933364652022	536.3144751893221	0.0	479.74148470606076	680.4659079323443	0.0	434.5505742879154	707.0393526361045	0.0	460.80030707676286	712.0099794482118	0.0	484.7075043935474	697.6646530864665	0.0	438.68671069507576	211.43149656146022	0.0	429.977280907897	111.69442159035732	0.0	469.9610390299777	165.6169753208404	0.0	378.55530326388634	255.85018814742787	0.0	371.00245370047026	337.54932717363437	0.0	374.923183010436	415.69912948578497	0.0	508.56637825228734	216.73506980689706	0.0	588.628598127078	259.9084586591341	0.0	586.6310606571396	323.44664305532535	0.0
70	2.3333333333333335	496.78553569507244	391.79851298720746	0.0	463.8772765264243	400.3590058466912	0.0	409.93036982617963	538.402674512091	0.0	385.64441301391616	633.947797923616	0.0	377.6010955205292	686.9419051050139	0.0	355.5328908733168	675.2723271534668	0.0	390.3631025377907	643.1271986491085	0.0	533.0275775101549	392.32786689681734	0.0	535.4265796370836	539.2682758524571	0.0	526.7532895811187	686.0313365127727	0.0	485.2146074876413	709.4984390507411	0.0	512.1793955232554	713.9734207271651	0.0	532.7571917519371	700.0490600123346	0.0	448.6089409688195	222.04459527193214	0.0	440.11525533480994	122.0956831416578	0.0	481.3656264526169	176.79707423456742	0.0	387.4859965188869	266.39924280898197	0.0	373.9497667636192	349.3928095302747	0.0	367.58101034723586	441.04923174902297	0.0	519.4721705111579	222.91761181928266	0.0	598.5860172016507	258.3055626568977	0.0	623.2198201607816	311.4530851125014	0.0
71	2.3666666666666667	508.91457126415685	397.8726944064476	0.0	473.8995064643651	406.62688528006646	0.0	409.59261917755697	538.9079357411943	0.0	386.5011118876648	634.6495493923303	0.0	376.1923188108955	687.0645157987303	0.0	355.40191849740756	674.9151238596593	0.0	391.75802029996976	643.1857067297319	0.0	546.3944029038825	397.83008249094775	0.0	566.8356603706682	542.1008878604308	0.0	579.8281497395167	687.3249048130906	0.0	548.3369454318004	711.0469193681829	0.0	574.8262693266115	714.3516223079947	0.0	585.4716235458128	699.2850864067798	0.0	461.10410766966334	233.1861650594233	0.0	455.0028242601682	133.37649637274026	0.0	495.804633447108	187.66141430093774	0.0	399.68540075505	277.14912813312384	0.0	377.41130013348413	361.19001643846104	0.0	359.5416377268715	457.55565133696047	0.0	532.5073645197176	229.9813550759643	0.0	610.4192223730668	256.0823900246599	0.0	660.4674201432938	288.27093086795986	0.0
72	2.4	521.9843937146405	406.05074132772705	0.0	484.48534483445366	414.562171189349	0.0	409.2205502964822	539.1827163779761	0.0	387.48131159862305	635.1568791955046	0.0	375.0591138004207	686.8128295165645	0.0	355.660842290834	674.4566130737312	0.0	392.8901515206231	643.4947096173576	0.0	561.4822428709747	405.8086851502645	0.0	599.0913158879598	546.4248099394878	0.0	636.934608880774	683.5956702648568	0.0	621.5783310201317	710.4256545449977	0.0	645.0955610150276	710.8048087709775	0.0	641.7095848499739	695.3617023844058	0.0	476.75421303049364	244.2146728521538	0.0	473.70441131644	144.69966279249655	0.0	513.8102976685495	198.12239684247294	0.0	414.7600710422649	287.05900956887575	0.0	382.1404920324023	370.48607430493047	0.0	351.89255800962445	464.4099973805221	0.0	548.4566246376975	237.91617843449637	0.0	627.2521771716298	250.82653075126086	0.0	697.6446737975248	259.72062104390534	0.0
73	2.433333333333333	535.4967521691611	414.4509072000758	0.0	495.8149588867542	422.9472934083907	0.0	410.3067056574007	539.0905195596116	0.0	388.54130456190194	634.7515006809548	0.0	374.9943581052267	686.3761905358682	0.0	355.96962033090927	673.1208284664847	0.0	393.50353619925687	642.5865721482566	0.0	577.3804797349683	414.5698707348786	0.0	632.3365873584002	550.0394440966389	0.0	695.1495727615435	676.605888960434	0.0	701.7762167697852	705.360627529238	0.0	719.7841972373794	701.7323352586027	0.0	699.2218238956968	690.1037486597098	0.0	496.185868854697	254.73439968529232	0.0	494.5458881893957	155.4811778866736	0.0	535.081093853687	208.25172280125122	0.0	432.58209853581235	295.1880000743537	0.0	388.89198313886993	375.67683307798535	0.0	346.53925536051423	463.01654879311354	0.0	567.863889379328	245.3497638090952	0.0	648.7623205069077	241.00537846453503	0.0	731.344459887925	228.47360117251222	0.0
74	2.466666666666667	550.831544048865	422.00821639780924	0.0	509.3000006339091	430.43677411739117	0.0	415.1649252313476	538.7620761368038	0.0	389.4108330712162	633.4881263652095	0.0	376.3254648970932	685.7188949884835	0.0	356.4940019853957	671.1748584038038	0.0	393.6526947660325	640.864877338013	0.0	594.4262401760373	423.10349809003947	0.0	666.2227881554525	551.3193649593787	0.0	750.7659416686661	669.8413826450117	0.0	783.4511922904165	693.3253064137518	0.0	793.84133440449	687.3899022872073	0.0	754.3716573165966	686.161173963236	0.0	519.0364899467303	264.38214797634254	0.0	517.7083601550529	165.53229020244447	0.0	559.2951144487198	216.8462016611904	0.0	453.6822258644607	300.935841204652	0.0	399.0308506805517	374.8411769711913	0.0	346.5440191829412	454.73442336560504	0.0	590.3449500808318	251.6884813326079	0.0	671.7719576690642	228.77577703068363	0.0	757.1776153022131	196.9218188888093	0.0
